<svg width="50" height="50" viewBox="0 0 50 50" fill="none" xmlns="http://www.w3.org/2000/svg"><path fill-rule="evenodd" clip-rule="evenodd" d="M38.2242 8.675C36.5117 8.675 35.1233 10.0633 35.1233 11.7758C35.1233 13.4883 36.5117 14.8767 38.2242 14.8767C39.9367 14.8767 41.325 13.4883 41.325 11.7758C41.325 10.0633 39.9367 8.675 38.2242 8.675ZM25 33.8808C20.095 33.8808 16.1183 29.9058 16.1183 25C16.1183 20.095 20.095 16.1183 25 16.1183C29.9058 16.1183 33.8817 20.095 33.8817 25C33.8817 29.9058 29.9058 33.8808 25 33.8808ZM25 11.5717C17.5833 11.5717 11.5717 17.5833 11.5717 25C11.5717 32.4158 17.5833 38.4275 25 38.4275C32.4167 38.4275 38.4292 32.4158 38.4292 25C38.4292 17.5833 32.4167 11.5717 25 11.5717ZM45.315 35.0842C45.2033 37.5183 44.7967 38.8383 44.455 39.7192C44.0025 40.8833 43.4617 41.7142 42.5883 42.5883C41.715 43.4625 40.8833 44.0025 39.7183 44.4558C38.8392 44.7975 37.5175 45.2033 35.085 45.315C32.4533 45.4342 31.6642 45.46 25 45.46C18.3358 45.46 17.5467 45.4342 14.915 45.315C12.4825 45.2033 11.1608 44.7975 10.2817 44.4558C9.11668 44.0025 8.28498 43.4625 7.41165 42.5883C6.53832 41.7142 5.99749 40.8833 5.54499 39.7192C5.20333 38.8383 4.79582 37.5183 4.68582 35.0842C4.56582 32.4525 4.54 31.6633 4.54 25C4.54 18.3358 4.56582 17.5467 4.68582 14.9158C4.79582 12.4817 5.20333 11.1592 5.54499 10.2817C5.99749 9.115 6.53832 8.285 7.41165 7.41167C8.28498 6.53833 9.11668 5.99667 10.2817 5.545C11.1608 5.20333 12.4825 4.79667 14.915 4.68583C17.5475 4.56583 18.3367 4.54 25 4.54C31.6642 4.54 32.4525 4.56583 35.085 4.68583C37.5175 4.79667 38.8392 5.20333 39.7183 5.545C40.8833 5.99667 41.715 6.53833 42.5883 7.41167C43.4617 8.285 44.0025 9.115 44.455 10.2817C44.7967 11.1592 45.2033 12.4817 45.315 14.9158C45.435 17.5467 45.46 18.3358 45.46 25C45.46 31.6633 45.435 32.4525 45.315 35.0842ZM49.85 14.6925C49.7283 12.0317 49.3058 10.215 48.6875 8.62417C48.0492 6.98083 47.1942 5.585 45.8042 4.19583C44.4142 2.80667 43.0191 1.95167 41.3766 1.3125C39.7858 0.695001 37.9683 0.271667 35.3075 0.15C32.6408 0.0275003 31.79 0 25 0C18.2108 0 17.3592 0.0275003 14.6925 0.15C12.0317 0.271667 10.2142 0.695001 8.62417 1.3125C6.98 1.95167 5.58581 2.80667 4.19581 4.19583C2.80664 5.585 1.95165 6.98083 1.31165 8.62417C0.694979 10.215 0.271666 12.0317 0.150833 14.6925C0.0291665 17.3592 0 18.2092 0 25C0 31.7892 0.0291665 32.6417 0.150833 35.3075C0.271666 37.9683 0.694979 39.7858 1.31165 41.3758C1.95165 43.0208 2.80664 44.4133 4.19581 45.8042C5.58581 47.195 6.98 48.0483 8.62417 48.6875C10.2142 49.3058 12.0317 49.7275 14.6925 49.85C17.3592 49.9708 18.2108 50.0008 25 50.0008C31.79 50.0008 32.6408 49.9708 35.3075 49.85C37.9683 49.7275 39.7858 49.3058 41.3766 48.6875C43.0191 48.0483 44.4142 47.195 45.8042 45.8042C47.1942 44.4133 48.0492 43.0208 48.6875 41.3758C49.3058 39.7858 49.7283 37.9683 49.85 35.3075C49.9717 32.6417 50 31.7892 50 25C50 18.2092 49.9717 17.3592 49.85 14.6925Z" fill="black"/></svg>