<!-- <svg width="49" height="16" viewBox="0 0 49 16" fill="none" xmlns="http://www.w3.org/2000/svg"><path d="M1.00468 3.14828L0 6.80711L10.1112 3.53L11.1159 0L1.00468 3.14828Z" fill="#1D2C88"/><path d="M7.19909 7.09339C6.55013 7.16401 6.33766 7.26421 6.30689 7.72705C6.29632 8.04961 6.27613 8.47142 6.27613 9.4076V13.4434H5.8906L1.55076 8.1794V10.6959C1.55076 11.6016 1.58153 12.0549 1.60172 12.3469C1.62191 12.8603 1.87572 13.0111 2.60544 13.0712V13.3527H0.14229V13.0712C0.771056 13.0206 1.01429 12.8698 1.05467 12.3765C1.08544 12.0539 1.10563 11.6016 1.10563 10.6854V8.11927C1.10563 7.83775 1.08544 7.67647 0.90277 7.45507C0.710487 7.20314 0.497052 7.14301 0 7.09243V6.81091H1.52096L5.82042 11.8735V9.4076C5.82042 8.47142 5.80023 8.03911 5.76946 7.7366C5.73869 7.2833 5.50603 7.14301 4.6946 7.09243V6.81091H7.19909V7.09243V7.09339Z" fill="#231815"/><path d="M9.42957 8.814C10.6967 8.814 11.6399 9.77022 11.6399 11.0681C11.6399 12.699 10.4227 13.4739 9.42957 13.4739C8.03071 13.4739 7.17889 12.3564 7.17889 11.2294C7.17889 9.5889 8.46623 8.814 9.42957 8.814ZM9.30747 9.15659C8.68928 9.15659 8.13166 9.75018 8.13166 10.9183C8.13166 12.1961 8.69985 13.1227 9.53052 13.1227C10.1593 13.1227 10.6861 12.6694 10.6861 11.2904C10.6861 10.1128 10.1997 9.15659 9.30747 9.15659Z" fill="#231815"/><path d="M14.3472 13.3432C14.1751 13.4339 14.0127 13.4739 13.9108 13.4739C13.2618 13.4739 12.9167 13.0817 12.9167 12.2763V9.3475H12.2167L12.1764 9.2263L12.4504 8.93428H12.9167V8.08876C13.1089 7.8874 13.4031 7.62592 13.5964 7.42456L13.7483 7.4446C13.7281 7.86736 13.7175 8.4514 13.7175 8.93428H14.8731C14.9645 9.03448 14.9337 9.25684 14.8126 9.34654H13.7175V11.9232C13.7175 12.7382 14.0425 12.889 14.3059 12.889C14.5491 12.889 14.7828 12.7983 14.9241 12.7277L15.0154 12.9892L14.3463 13.3413L14.3472 13.3432Z" fill="#231815"/><path d="M15.5538 13.3537V13.0722C16.1922 13.012 16.2634 12.9615 16.2634 12.2772V10.2035C16.2634 9.57939 16.2326 9.5393 15.625 9.43815V9.19671C16.1518 9.10605 16.6287 8.97531 17.0652 8.79399V12.2763C17.0652 12.9605 17.1363 13.0111 17.7949 13.0712V13.3527H15.5538V13.3537ZM16.6085 7.80818C16.3249 7.80818 16.0711 7.55625 16.0711 7.27472C16.0711 6.95217 16.3249 6.72122 16.6191 6.72122C16.9133 6.72122 17.1363 6.95312 17.1363 7.27472C17.1363 7.55625 16.9027 7.80818 16.6095 7.80818H16.6085Z" fill="#231815"/><path d="M20.482 8.814C21.7491 8.814 22.6923 9.77022 22.6923 11.0681C22.6923 12.699 21.4751 13.4739 20.482 13.4739C19.0831 13.4739 18.2313 12.3564 18.2313 11.2294C18.2313 9.5889 19.5187 8.814 20.482 8.814ZM20.3599 9.15659C19.7417 9.15659 19.1841 9.75018 19.1841 10.9183C19.1841 12.1961 19.7523 13.1227 20.5829 13.1227C21.2117 13.1227 21.7386 12.6694 21.7386 11.2904C21.7386 10.1128 21.2521 9.15659 20.3599 9.15659Z" fill="#231815"/><path d="M26.1601 13.3537V13.0722C26.7485 13.0121 26.8091 12.9414 26.8091 12.2572V10.5967C26.8091 9.89241 26.5553 9.41907 25.8861 9.41907C25.4708 9.41907 25.0747 9.66051 24.7603 9.94203V12.2973C24.7603 12.992 24.8209 13.0121 25.4198 13.0722V13.3537H23.2297V13.0722C23.8989 13.0016 23.9595 12.9615 23.9595 12.2973V10.2236C23.9595 9.5689 23.8883 9.53931 23.3413 9.44866V9.18717C23.8383 9.10701 24.3354 8.97627 24.7613 8.78445V9.5794C24.9641 9.43816 25.1872 9.28738 25.4506 9.11655C25.7342 8.93524 25.9986 8.81499 26.2918 8.81499C27.1033 8.81499 27.6099 9.40857 27.6099 10.3848V12.2973C27.6099 12.9815 27.6705 13.0121 28.2589 13.0722V13.3537H26.1601Z" fill="#231815"/><path d="M33.9678 9.81034C34.9408 9.97162 35.732 10.4345 35.732 11.4107C35.732 12.095 35.3465 12.6389 34.7485 12.9605C34.2216 13.2525 33.7044 13.3527 32.9939 13.3527H30.499V13.0712C31.3605 12.9911 31.4114 12.9004 31.4114 12.1055V8.06967C31.4114 7.23465 31.3201 7.16403 30.499 7.09341V6.81189H33.1554C33.9159 6.81189 34.3928 6.94263 34.7168 7.16403C35.0715 7.40547 35.3148 7.77765 35.3148 8.29107C35.3148 9.2368 34.5341 9.67005 33.9659 9.81129L33.9678 9.81034ZM32.8016 9.68914C33.9169 9.68914 34.3735 9.24634 34.3735 8.42086C34.3735 7.71658 33.937 7.17262 32.9641 7.17262C32.6805 7.17262 32.4978 7.20316 32.3959 7.27282C32.3151 7.33294 32.2844 7.44364 32.2844 7.7662V9.68819H32.8016V9.68914ZM32.2844 12.0845C32.2844 12.8088 32.4565 12.9901 33.1766 12.9901C33.9678 12.9901 34.7379 12.5673 34.7379 11.5109C34.7379 10.4545 34.0082 10.0413 32.7708 10.0413H32.2844V12.0845Z" fill="#231815"/><path d="M36.3608 13.3537V13.0722C37.0097 13.0121 37.0905 12.9615 37.0905 12.2973V7.4761C37.0905 6.86247 37.0395 6.8014 36.3906 6.72124V6.45976C36.9386 6.39963 37.5664 6.23835 37.8914 6.11716V12.2973C37.8914 12.9615 37.9519 13.0121 38.6115 13.0722V13.3537H36.3608Z" fill="#231815"/><path d="M41.3486 8.814C42.6157 8.814 43.5589 9.77022 43.5589 11.0681C43.5589 12.699 42.3417 13.4739 41.3486 13.4739C39.9497 13.4739 39.0979 12.3564 39.0979 11.2294C39.0979 9.5889 40.3852 8.814 41.3486 8.814ZM41.2265 9.15659C40.6083 9.15659 40.0507 9.75018 40.0507 10.9183C40.0507 12.1961 40.6189 13.1227 41.4495 13.1227C42.0783 13.1227 42.6051 12.6694 42.6051 11.2904C42.6051 10.1128 42.1187 9.15659 41.2265 9.15659Z" fill="#231815"/><path d="M45.6586 11.884C45.4154 12.0749 45.3241 12.2667 45.3241 12.387C45.3241 12.5683 45.4962 12.7696 45.9528 12.7696C46.3278 12.7696 46.7537 12.7591 47.0883 12.7591C47.7372 12.7591 48.5688 12.97 48.5688 13.9673C48.5688 15.0142 47.3219 16 45.973 16C44.827 16 44.2088 15.3358 44.1886 14.7422C44.1886 14.5208 44.28 14.3299 44.4424 14.1687C44.6453 13.9578 45.0404 13.6247 45.2741 13.4443C44.9087 13.3441 44.6453 13.1122 44.5136 12.9004C44.4223 12.7496 44.3915 12.5683 44.3915 12.4671C44.777 12.3259 45.1212 12.0444 45.3241 11.7724L45.6586 11.8831V11.884ZM46.1451 11.9842C45.202 11.9842 44.4213 11.4107 44.4213 10.464C44.4213 9.31694 45.4558 8.78348 46.2461 8.78348C46.5806 8.78348 46.9152 8.87414 47.219 9.03542C47.6853 9.03542 48.2939 8.95525 48.5775 8.88463L48.6381 8.97529C48.5775 9.13657 48.415 9.4181 48.2631 9.50875C48.1112 9.50875 47.7766 9.46867 47.6343 9.45818C47.8064 9.69007 47.9285 10.0117 47.9285 10.3743C47.9285 11.4718 47.0162 11.9852 46.1441 11.9852L46.1451 11.9842ZM46.3787 13.4739C45.8817 13.4739 45.6586 13.534 45.476 13.6848C45.1923 13.9167 44.9895 14.2183 44.9895 14.5103C44.9895 15.0638 45.5673 15.4761 46.348 15.4761C47.3113 15.4761 47.8584 14.9827 47.8584 14.3385C47.8584 13.9959 47.6959 13.7249 47.4123 13.6037C47.1584 13.493 46.8037 13.473 46.3778 13.473L46.3787 13.4739ZM46.1451 9.10603C45.6884 9.10603 45.2837 9.5183 45.2837 10.3142C45.2837 11.1101 45.6894 11.6626 46.247 11.6626C46.6931 11.6426 47.0883 11.2704 47.0883 10.4545C47.0883 9.63854 46.7133 9.10603 46.1451 9.10603Z" fill="#231815"/></svg> -->
<svg xmlns="http://www.w3.org/2000/svg" width="41" height="15" fill="#000"><path d="m1,3l-1,3,9-3,1-3L1,3Z"/><path d="m6.56,6.06s0,.06-.02.06c-.25,0-.44.1-.59.29s-.21.46-.21.79v4.77s-.01.03-.04.04c-.03,0-.05,0-.06,0L1.28,7.01v3.62c0,.33.07.59.2.78.14.19.33.29.57.29.01,0,.02.02.02.06s0,.06-.02.06c-.17,0-.31,0-.4,0h-.5s-.58,0-.58,0c-.11,0-.26,0-.46,0-.02,0-.03-.02-.03-.06s0-.06.03-.06c.27,0,.49-.1.65-.29.16-.19.24-.45.24-.78v-3.94c-.21-.22-.38-.38-.53-.46-.15-.08-.3-.13-.45-.13-.01,0-.02-.02-.02-.06s0-.06.02-.06h.39c.08.02.2.02.35.02h.71c.09-.02.19-.02.32-.02.05,0,.09.01.11.04s.07.08.13.16c.11.14.18.24.22.29l3.22,3.72v-3.01c0-.33-.07-.6-.21-.79s-.33-.29-.57-.29c-.01,0-.02-.02-.02-.06s0-.06.02-.06h.4c.2.02.37.03.5.03.12,0,.3,0,.52-.02h.42s.02,0,.02.05Z"/><path d="m7.46,11.73c-.29-.18-.51-.42-.67-.72-.16-.3-.23-.63-.23-.98,0-.4.1-.75.31-1.03.21-.28.47-.49.78-.63.32-.14.64-.21.98-.21.38,0,.72.09,1.01.27.29.18.5.42.66.71.15.3.23.61.23.95,0,.37-.09.7-.28.99-.19.29-.44.51-.75.67-.31.16-.65.24-1.02.24-.38,0-.72-.09-1.01-.27Zm1.84-.29c.13-.24.19-.58.19-1.03s-.06-.81-.17-1.12c-.11-.31-.26-.54-.44-.7-.18-.16-.37-.24-.58-.24-.5,0-.75.44-.75,1.33,0,.42.05.78.16,1.1s.25.57.43.74c.18.18.38.27.6.27.24,0,.43-.12.55-.36Z"/><path d="m13.65,11.24s.04.01.06.04c.02.03.01.04,0,.06-.23.23-.45.4-.67.51-.22.11-.45.16-.69.16-.27,0-.51-.07-.7-.2s-.29-.35-.29-.66v-2.07c0-.19-.03-.33-.1-.4s-.19-.11-.37-.11c0,0-.01,0-.02-.03,0-.02-.01-.04-.01-.06,0-.02,0-.04,0-.06,0-.02.02-.02.03-.02.32-.01.57-.08.77-.21.2-.12.35-.31.45-.57.01-.02.04-.04.08-.04s.06.01.06.04v.75c.36,0,.76-.03,1.21-.08.01,0,.03.02.04.07.02.05.02.1.02.15,0,.06-.01.12-.03.18s-.04.09-.07.08c-.4-.09-.79-.13-1.17-.14v2.21c0,.24.06.41.18.52.12.11.28.17.48.17.25,0,.49-.09.73-.28h.02Z"/><path d="m14.09,11.94s0-.06.03-.06c.19,0,.32-.04.39-.13s.1-.26.1-.51v-1.67c0-.21-.02-.36-.07-.46-.04-.09-.12-.14-.21-.14-.08,0-.2.03-.34.1h0s-.04-.02-.06-.05c-.01-.03,0-.05,0-.06l1.41-.65h.03s.06,0,.09.04c.03.03.05.06.05.08v.2c-.01.25-.02.55-.02.91v1.69c0,.25.04.42.11.51s.2.13.4.13c.02,0,.03.02.03.06s0,.06-.03.06c-.16,0-.29,0-.38,0h-.56s-.55,0-.55,0c-.09,0-.22,0-.38,0-.02,0-.03-.02-.03-.06Zm.5-4.7c-.1-.1-.15-.24-.15-.42,0-.16.05-.29.15-.39.1-.1.24-.14.41-.14s.31.05.4.14c.09.09.14.22.14.39,0,.18-.05.32-.14.42-.09.1-.23.15-.4.15s-.32-.05-.42-.15Z"/><path d="m17.32,11.73c-.29-.18-.51-.42-.67-.72-.16-.3-.23-.63-.23-.98,0-.4.1-.75.31-1.03.21-.28.47-.49.78-.63.32-.14.64-.21.98-.21.38,0,.72.09,1.01.27.29.18.5.42.66.71.15.3.23.61.23.95,0,.37-.09.7-.28.99-.19.29-.44.51-.75.67-.31.16-.65.24-1.02.24-.38,0-.72-.09-1.01-.27Zm1.84-.29c.13-.24.19-.58.19-1.03s-.06-.81-.17-1.12c-.11-.31-.26-.54-.44-.7-.18-.16-.37-.24-.58-.24-.5,0-.75.44-.75,1.33,0,.42.05.78.16,1.1s.25.57.43.74c.18.18.38.27.6.27.24,0,.43-.12.55-.36Z"/><path d="m25.54,11.94s0,.06-.03.06c-.16,0-.29,0-.38,0h-.56s-.54,0-.54,0c-.1,0-.23,0-.39,0-.02,0-.03-.02-.03-.06s0-.06.03-.06c.19,0,.32-.04.39-.13s.1-.26.1-.51v-1.34c0-.34-.06-.58-.18-.75-.12-.16-.31-.24-.57-.24-.15,0-.3.03-.46.09-.16.06-.3.15-.41.25v1.98c0,.25.04.42.11.51s.2.13.4.13c.02,0,.03.02.03.06s0,.06-.03.06c-.16,0-.29,0-.38,0h-.56s-.55,0-.55,0c-.09,0-.22,0-.38,0-.02,0-.03-.02-.03-.06s0-.06.03-.06c.19,0,.32-.04.39-.13s.1-.26.1-.51v-1.75c0-.19-.02-.33-.07-.42-.05-.09-.12-.13-.22-.13-.11,0-.25.04-.45.13h-.02s-.03-.02-.04-.05c0-.03,0-.05,0-.06l1.29-.63s.06-.02.07-.02c.07,0,.13.07.2.2.06.13.1.32.11.54.43-.51.9-.76,1.42-.76.34,0,.6.11.8.32s.29.5.29.84v1.79c0,.25.04.42.11.51.07.09.2.13.4.13.02,0,.03.02.03.06Z"/><path d="m30.37,9.57c.27.25.4.56.4.93,0,.28-.08.54-.24.76-.16.23-.39.41-.67.54-.29.13-.61.2-.96.2-.15,0-.33,0-.52-.02-.08,0-.17-.01-.28-.02-.11,0-.23,0-.37,0h-.59c-.11.01-.25.02-.44.02-.02,0-.02-.02-.02-.05s0-.05.02-.05c.16,0,.28-.01.36-.04.08-.03.14-.08.17-.16s.05-.2.05-.35v-3.76c0-.23-.04-.38-.11-.45s-.23-.11-.46-.11c-.01,0-.02-.02-.02-.05s0-.05.02-.05h.43c.25.02.45.02.59.02s.31,0,.47-.02c.05,0,.14-.01.24-.02.11,0,.2,0,.28,0,.49,0,.88.09,1.15.27.27.18.41.44.41.78,0,.26-.09.5-.26.71s-.42.38-.74.5c.46.05.82.21,1.09.46Zm-2.09-2.42c-.06.07-.09.21-.09.41v1.54h.33c.28,0,.5-.1.65-.31.15-.21.23-.48.23-.81,0-.31-.07-.54-.2-.7-.14-.16-.33-.24-.59-.24-.16,0-.27.04-.33.11Zm1.54,3.54c0-.42-.1-.75-.3-.99-.2-.24-.5-.37-.91-.37-.16,0-.3,0-.42.02v1.96c0,.18.04.3.11.38.07.07.22.11.46.11.71,0,1.07-.37,1.07-1.11Z"/><path d="m31.29,11.95s0-.05.02-.05c.17,0,.28-.04.35-.12.06-.08.09-.23.09-.44v-4.13c0-.19,0-.33-.04-.41s-.1-.12-.18-.12c-.07,0-.17.03-.31.09h0s-.03-.01-.04-.04-.01-.05,0-.05l1.19-.56h.03s.06,0,.09.03c.03.02.05.05.05.07v5.13c0,.22.03.36.09.44s.17.12.34.12c.02,0,.03.02.03.05s-.01.05-.03.05c-.14,0-.24,0-.33,0h-.5s-.49,0-.49,0c-.08,0-.19,0-.33,0-.01,0-.02-.02-.02-.05Z"/><path d="m34.13,11.77c-.25-.15-.45-.36-.58-.63-.14-.26-.2-.55-.2-.86,0-.35.09-.65.27-.9.18-.25.41-.43.68-.55.28-.12.56-.18.85-.18.34,0,.63.08.88.24.25.16.44.36.57.62.13.26.2.53.2.83,0,.33-.08.61-.24.87-.16.25-.38.45-.65.59-.27.14-.57.21-.89.21-.34,0-.63-.08-.88-.23Zm1.61-.25c.11-.21.17-.51.17-.9s-.05-.7-.15-.98c-.1-.27-.22-.48-.38-.61-.16-.14-.33-.21-.5-.21-.43,0-.65.39-.65,1.16,0,.36.05.68.14.96s.22.5.37.65c.16.15.33.23.52.23.21,0,.37-.1.48-.31Z"/><path d="m40.13,12.12c.23.04.42.13.57.27s.23.36.23.65c0,.34-.1.66-.31.96-.21.3-.49.54-.85.73s-.74.27-1.15.27-.76-.1-1.03-.29c-.27-.19-.4-.44-.4-.75,0-.43.31-.84.92-1.24-.44-.09-.66-.3-.66-.66,0-.38.21-.71.64-.99-.23-.11-.41-.26-.54-.46-.13-.2-.2-.41-.2-.63,0-.24.08-.45.24-.62.16-.17.36-.3.61-.39.25-.09.5-.13.75-.13.38,0,.71.1.99.29.32-.21.64-.32.99-.32.05,0,.07.09.07.26,0,.09-.01.19-.04.29-.02.1-.05.14-.07.12-.25-.1-.47-.15-.68-.15h-.07c.16.2.25.41.25.66s-.08.46-.24.65c-.16.19-.36.33-.61.43-.25.1-.5.15-.76.15-.19,0-.36-.03-.52-.08-.1.1-.15.23-.15.39s.04.28.13.36c.09.07.2.12.35.14.15.02.36.03.65.04.36,0,.65.03.88.06Zm-.21,2.3c.18-.19.27-.46.27-.79,0-.26-.06-.45-.17-.57-.11-.12-.26-.19-.44-.22-.18-.03-.44-.04-.78-.05-.05,0-.13,0-.23,0-.1,0-.18-.01-.25-.02-.21.15-.31.4-.31.73,0,.39.11.69.34.9s.5.32.82.32.56-.1.74-.29Zm-1.67-4.71c0,.26.04.49.11.69.07.2.17.36.29.48.12.12.25.17.38.17s.25-.07.34-.2c.09-.13.14-.34.14-.61s-.04-.48-.13-.67c-.09-.19-.19-.32-.32-.42s-.26-.14-.39-.14c-.27,0-.41.23-.41.69Z"/></svg>